<svg xmlns="http://www.w3.org/2000/svg" width="512" height="512" viewBox="0 0 512 512" role="img" aria-label="CRM عقاري">
  <defs>
    <linearGradient id="bg" x1="88" y1="68" x2="424" y2="444" gradientUnits="userSpaceOnUse">
      <stop offset="0" stop-color="#3e9b8c"/>
      <stop offset="0.55" stop-color="#287568"/>
      <stop offset="1" stop-color="#173f3a"/>
    </linearGradient>
    <linearGradient id="gold" x1="165" y1="138" x2="358" y2="371" gradientUnits="userSpaceOnUse">
      <stop offset="0" stop-color="#f7d991"/>
      <stop offset="0.48" stop-color="#d7a94c"/>
      <stop offset="1" stop-color="#a96d24"/>
    </linearGradient>
    <linearGradient id="paper" x1="162" y1="182" x2="332" y2="349" gradientUnits="userSpaceOnUse">
      <stop offset="0" stop-color="#fffaf0"/>
      <stop offset="1" stop-color="#eadcc4"/>
    </linearGradient>
    <filter id="shadow" x="64" y="72" width="384" height="384" color-interpolation-filters="sRGB" filterUnits="userSpaceOnUse">
      <feDropShadow dx="0" dy="18" stdDeviation="18" flood-color="#0b2723" flood-opacity="0.35"/>
    </filter>
  </defs>

  <rect width="512" height="512" rx="112" fill="url(#bg)"/>
  <path fill="#f7f3ea" fill-opacity="0.14" d="M94 116c35-45 116-66 191-43 78 24 127 91 143 166 15 70-3 137-49 177 21-60 13-132-28-191-52-75-148-112-257-109z"/>
  <path fill="#102f2b" fill-opacity="0.18" d="M72 391c72 23 143 7 212-47 57-45 104-50 158-18v90c0 31-25 56-56 56H128c-31 0-56-25-56-56z"/>

  <g filter="url(#shadow)">
    <path fill="url(#gold)" d="M255 111 129 213c-9 7-11 21-3 30l17 20 112-91 112 91 17-20c8-9 6-23-3-30z"/>
    <path fill="url(#paper)" d="M151 241c0-10 8-18 18-18h174c10 0 18 8 18 18v129c0 10-8 18-18 18H169c-10 0-18-8-18-18z"/>
    <path fill="#246b60" d="M199 279c0-10 8-18 18-18h78c10 0 18 8 18 18v109H199z"/>
    <path fill="#fff5dc" d="M224 286h63v102h-63z"/>
    <path fill="#1e5b52" d="M192 221h128v34H192z" opacity="0.16"/>
    <path fill="#c88d35" d="M171 388h170c8 0 15 7 15 15v16H156v-16c0-8 7-15 15-15z"/>
  </g>

  <g fill="#f8d78a">
    <rect width="28" height="30" x="180" y="257" rx="7"/>
    <rect width="28" height="30" x="228" y="257" rx="7"/>
    <rect width="28" height="30" x="276" y="257" rx="7"/>
    <rect width="28" height="30" x="180" y="306" rx="7"/>
    <rect width="28" height="30" x="276" y="306" rx="7"/>
  </g>

  <g stroke="#fff8e8" stroke-linecap="round" stroke-linejoin="round" stroke-width="16">
    <path d="M336 153h54v54"/>
    <path d="M390 153 315 228"/>
  </g>

  <g>
    <circle cx="377" cy="321" r="41" fill="#173f3a" fill-opacity="0.9"/>
    <circle cx="377" cy="321" r="28" fill="#f7d991"/>
    <path fill="#287568" d="M377 302c14 0 25 11 25 25v11h-50v-11c0-14 11-25 25-25z"/>
    <circle cx="377" cy="299" r="12" fill="#287568"/>
  </g>

  <g fill="#fff6dc">
    <circle cx="129" cy="324" r="11"/>
    <circle cx="129" cy="362" r="11"/>
    <circle cx="129" cy="400" r="11"/>
  </g>
  <g stroke="#fff6dc" stroke-linecap="round" stroke-width="12" opacity="0.9">
    <path d="M152 324h32"/>
    <path d="M152 362h32"/>
    <path d="M152 400h32"/>
  </g>
</svg>